# Blender 3.3.1
# www.blender.org
mtllib frying pan.mtl
o Cube.001
v -0.000087 2.082342 -6.196912
v 0.000424 2.181127 -6.157157
v 0.000594 2.220906 -6.061158
v 0.000440 2.181154 -5.965149
v -0.000065 2.082381 -5.925371
v 0.000400 1.989148 -5.965126
v 0.000650 1.949369 -6.061125
v 0.000476 1.989121 -6.157134
v -0.099121 2.082180 -6.055590
v -0.099113 2.178185 -6.015823
v -0.099123 2.217951 -5.919818
v -0.099113 2.178185 -5.823814
v -0.099120 2.082180 -5.784047
v -0.099150 1.986175 -5.823814
v -0.099116 1.946408 -5.919818
v -0.099150 1.986175 -6.015823
v 0.031079 2.305036 -4.106985
v 0.031079 1.859572 -4.106985
v 0.085319 2.979841 -3.908829
v 0.085319 3.410568 -3.478102
v 0.085319 3.656182 -2.885135
v 0.085319 3.656182 -2.275995
v 0.085319 3.410568 -1.683029
v 0.085319 2.979841 -1.252302
v 0.085319 2.386873 -1.006687
v 0.085319 1.777733 -1.006687
v 0.085319 1.184767 -1.252302
v 0.085319 0.754040 -1.683029
v 0.085319 0.508425 -2.275996
v 0.085319 0.508425 -2.885136
v 0.085319 0.754040 -3.478102
v 0.085319 1.184767 -3.908829
v -0.127577 2.278172 -3.968166
v -0.127577 1.886436 -3.968166
v -0.181817 2.846548 -3.711569
v -0.181817 3.213307 -3.344809
v -0.181816 3.422446 -2.839904
v -0.181816 3.422446 -2.321227
v -0.181816 3.213307 -1.816322
v -0.181816 2.846548 -1.449562
v -0.181816 2.341642 -1.240423
v -0.181816 1.822965 -1.240423
v -0.181816 1.318060 -1.449562
v -0.181816 0.951300 -1.816322
v -0.181816 0.742162 -2.321227
v -0.181817 0.742162 -2.839904
v -0.181817 0.951300 -3.344809
v -0.181817 1.318060 -3.711569
v 0.085319 2.386874 -4.154444
v 0.085319 1.777734 -4.154444
v 0.085319 2.979841 -3.908829
v 0.085319 3.410568 -3.478102
v 0.085319 3.656182 -2.885135
v 0.085319 3.656182 -2.275995
v 0.085319 3.410568 -1.683029
v 0.085319 2.979841 -1.252302
v 0.085319 2.386873 -1.006687
v 0.085319 1.777733 -1.006687
v 0.085319 1.184767 -1.252302
v 0.085319 0.754040 -1.683029
v 0.085319 0.508425 -2.275996
v 0.085319 0.508425 -2.885136
v 0.085319 0.754040 -3.478102
v 0.085319 1.184767 -3.908829
v -0.174508 2.327452 -3.847380
v -0.174508 1.837156 -3.847380
v -0.174508 2.804731 -3.649684
v -0.174508 3.151423 -3.302992
v -0.174508 3.349118 -2.825714
v -0.174508 3.349118 -2.335417
v -0.174508 3.151423 -1.858138
v -0.174508 2.804731 -1.511447
v -0.174508 2.327452 -1.313751
v -0.174508 1.837155 -1.313751
v -0.174508 1.359877 -1.511447
v -0.174508 1.013185 -1.858139
v -0.174508 0.815489 -2.335417
v -0.174508 0.815490 -2.825714
v -0.174508 1.013185 -3.302992
v -0.174508 1.359877 -3.649684
v 0.078010 2.370209 -4.068326
v 0.078010 1.794399 -4.068326
v 0.078010 2.930730 -3.836151
v 0.078010 3.337890 -3.428992
v 0.078010 3.570065 -2.868470
v 0.078010 3.570065 -2.292660
v 0.078011 3.337890 -1.732139
v 0.078011 2.930730 -1.324980
v 0.078011 2.370208 -1.092804
v 0.078011 1.794398 -1.092804
v 0.078011 1.233877 -1.324980
v 0.078011 0.826718 -1.732139
v 0.078010 0.594542 -2.292661
v 0.078010 0.594543 -2.868471
v 0.078010 0.826718 -3.428992
v 0.078010 1.233878 -3.836151
v 0.085319 2.386874 -4.154444
v 0.085319 1.777734 -4.154444
v -0.181817 2.341643 -3.920707
v -0.181817 1.822966 -3.920707
v 0.001638 2.222375 -4.863618
v 0.001638 1.942234 -4.863618
v -0.084876 2.205481 -4.776319
v -0.084876 1.959128 -4.776319
v 0.001278 2.316485 -6.222253
v 0.001278 1.848124 -6.222253
v -0.099123 2.288240 -6.076299
v -0.099123 1.876369 -6.076299
v 0.000970 2.294174 -5.900156
v -0.099110 2.268620 -5.768107
v -0.099060 1.895989 -5.768107
v 0.001196 1.870435 -5.900156
v 0.000954 2.305329 -6.061205
v -0.099073 2.278430 -5.922203
v -0.099066 1.886179 -5.922203
v 0.001147 1.859280 -6.061205
v -0.000039 2.082304 -6.222253
v -0.099123 2.082304 -6.076299
v 0.085319 2.082304 -4.154444
v 0.085319 2.082304 -4.154444
v 0.078010 2.082304 -4.068326
v 0.031079 2.082304 -4.106985
v 0.001638 2.082304 -4.863618
v -0.000084 2.082304 -5.900156
v -0.181817 2.082304 -3.920707
v -0.127577 2.082304 -3.968166
v -0.084876 2.082304 -4.776319
v -0.099121 2.082304 -5.768107
vn 0.4960 -0.8019 0.3330
vn 0.7956 0.2273 0.5616
vn -0.4951 0.8028 -0.3322
vn -0.4573 -0.8218 -0.3398
vn 0.7970 -0.2324 0.5574
vn 0.4584 0.8210 0.3403
vn -0.7975 0.2298 -0.5578
vn -0.7934 -0.2378 -0.5603
vn -0.6577 -0.2883 -0.6959
vn 0.6585 -0.7526 -0.0000
vn 0.6577 -0.6959 0.2883
vn 0.6585 -0.5322 -0.5322
vn 0.6577 -0.6959 -0.2883
vn 0.6585 -0.0000 -0.7526
vn 0.6577 -0.2883 -0.6959
vn 0.6585 0.5322 -0.5322
vn 0.6577 0.2883 -0.6959
vn 0.6585 0.7526 -0.0000
vn 0.6577 0.6959 -0.2883
vn 0.6585 0.5322 0.5322
vn -0.9986 -0.0000 -0.0528
vn 0.6577 0.6959 0.2883
vn 0.6577 -0.2883 0.6959
vn 0.6585 -0.5322 0.5322
vn -0.9951 -0.0000 0.0992
vn -0.0000 1.0000 -0.0000
vn -1.0000 -0.0000 -0.0000
vn -0.9950 0.0918 -0.0380
vn 0.9964 0.0324 0.0783
vn -0.9951 -0.0701 0.0701
vn -0.9950 0.0918 0.0380
vn -0.9964 0.0783 -0.0324
vn -0.9951 -0.0992 -0.0000
vn -0.9964 0.0783 0.0324
vn -0.9951 -0.0701 -0.0701
vn -0.9964 0.0324 0.0783
vn -0.9951 -0.0000 -0.0992
vn -0.9964 -0.0324 0.0783
vn -0.9951 0.0701 -0.0701
vn 0.9964 -0.0000 0.0846
vn -0.9964 -0.0783 0.0324
vn -0.9951 0.0992 -0.0000
vn -0.9964 0.0598 -0.0598
vn -0.9964 -0.0783 -0.0324
vn -0.9951 0.0701 0.0701
vn -0.9964 0.0846 -0.0000
vn -0.9950 -0.0380 0.0918
vn -0.9964 0.0598 0.0598
vn -0.9950 0.0380 0.0918
vn -0.9964 -0.0000 0.0846
vn -0.9950 -0.0918 0.0380
vn -0.9964 -0.0598 0.0598
vn -0.9950 -0.0918 -0.0380
vn -0.9964 -0.0846 -0.0000
vn -0.9950 -0.0380 -0.0918
vn -0.9964 -0.0598 -0.0598
vn -0.9950 0.0380 -0.0918
vn -0.9964 0.0324 -0.0783
vn 0.6577 0.2883 0.6959
vn 0.6585 -0.0000 0.7526
vn -0.6585 -0.0000 -0.7526
vn -0.1775 0.9820 0.0652
vn -0.2614 -0.9603 -0.0976
vn 0.9992 -0.0000 -0.0389
vn -0.2614 0.9603 -0.0976
vn -0.8257 -0.0025 -0.5641
vn -0.1772 -0.9820 0.0653
vn 1.0000 0.0036 -0.0012
vn -0.1460 -0.9870 0.0667
vn -0.9999 -0.0000 0.0144
vn -0.1461 0.9870 0.0667
vn -0.1692 0.9834 0.0654
vn -0.1688 -0.9835 0.0655
vn 1.0000 0.0055 0.0004
vn -0.8257 0.0025 -0.5641
vn 1.0000 -0.0030 -0.0013
vn 1.0000 0.0058 0.0004
vn 1.0000 -0.0057 0.0015
vn 1.0000 -0.0052 0.0012
vn 1.0000 -0.0044 -0.0003
vn 1.0000 -0.0049 0.0005
vn 1.0000 0.0058 -0.0009
vn 1.0000 0.0061 -0.0004
vn -1.0000 -0.0004 0.0002
vn -1.0000 -0.0009 0.0004
vn -1.0000 -0.0008 0.0001
vn -1.0000 -0.0010 -0.0000
vn -0.9999 -0.0002 0.0143
vn -1.0000 -0.0002 0.0009
vn -1.0000 -0.0000 -0.0004
vn -1.0000 -0.0000 0.0002
vn -1.0000 0.0003 0.0001
vn -1.0000 0.0004 -0.0000
vn -1.0000 0.0001 -0.0001
vt 0.000000 0.000000
vt 0.000000 0.000000
vt 0.000000 0.000000
vt 0.000000 0.000000
vt 0.000000 0.000000
vt 0.000000 0.000000
vt 0.000000 0.000000
vt 0.000000 0.000000
vt 0.000000 0.000000
vt 0.000000 0.000000
vt 0.000000 0.000000
vt 0.000000 0.000000
vt 0.000000 0.000000
vt 0.000000 0.000000
vt 0.000000 0.000000
vt 0.000000 0.000000
vt 0.000000 0.000000
vt 0.000000 0.000000
vt 0.000000 0.000000
vt 0.000000 0.000000
vt 0.000000 0.000000
vt 0.000000 0.000000
vt 0.000000 0.000000
vt 0.000000 0.000000
vt 0.000000 0.000000
vt 0.000000 0.000000
vt 0.000000 0.000000
vt 0.000000 0.000000
vt 0.000000 0.000000
vt 0.000000 0.000000
vt 0.000000 0.000000
vt 0.000000 0.000000
vt 0.000000 0.000000
vt 0.000000 0.000000
vt 0.000000 0.000000
vt 0.000000 0.000000
vt 0.000000 0.000000
vt 0.000000 0.000000
vt 0.000000 0.000000
vt 0.000000 0.000000
vt 0.000000 0.000000
vt 0.000000 0.000000
vt 0.000000 0.000000
vt 0.000000 0.000000
vt 0.000000 0.000000
vt 0.000000 0.000000
vt 0.000000 0.000000
vt 0.000000 0.000000
vt 0.000000 0.000000
vt 0.000000 0.000000
vt 0.000000 0.000000
vt 0.000000 0.000000
vt 0.000000 0.000000
vt 0.000000 0.000000
vt 0.000000 0.000000
vt 0.000000 0.000000
vt 0.000000 0.000000
vt 0.000000 0.000000
vt 0.000000 0.000000
vt 0.000000 0.000000
vt 0.000000 0.000000
vt 0.000000 0.000000
vt 0.000000 0.000000
vt 0.000000 0.000000
vt 0.000000 0.000000
vt 0.000000 0.000000
vt 0.000000 0.000000
vt 0.000000 0.000000
vt 0.000000 0.000000
vt 0.000000 0.000000
vt 0.000000 0.000000
vt 0.000000 0.000000
vt 0.000000 0.000000
vt 0.000000 0.000000
vt 0.000000 0.000000
vt 0.000000 0.000000
vt 0.000000 0.000000
vt 0.000000 0.000000
vt 0.000000 0.000000
vt 0.000000 0.000000
vt 0.000000 0.000000
vt 0.000000 0.000000
vt 0.000000 0.000000
vt 0.000000 0.000000
vt 0.000000 0.000000
vt 0.000000 0.000000
vt 0.000000 0.000000
vt 0.000000 0.000000
vt 0.000000 0.000000
vt 0.000000 0.000000
vt 0.000000 0.000000
vt 0.000000 0.000000
vt 0.000000 0.000000
vt 0.000000 0.000000
vt 0.000000 0.000000
vt 0.000000 0.000000
vt 0.000000 0.000000
vt 0.000000 0.000000
vt 0.000000 0.000000
vt 0.000000 0.000000
vt 0.000000 0.000000
vt 0.000000 0.000000
vt 0.000000 0.000000
vt 0.000000 0.000000
vt 0.000000 0.000000
vt 0.000000 0.000000
vt 0.000000 0.000000
vt 0.000000 0.000000
vt 0.000000 0.000000
vt 0.000000 0.000000
vt 0.000000 0.000000
vt 0.000000 0.000000
vt 0.000000 0.000000
vt 0.000000 0.000000
vt 0.000000 0.000000
vt 0.000000 0.000000
vt 0.000000 0.000000
vt 0.000000 0.000000
vt 0.000000 0.000000
vt 0.000000 0.000000
vt 0.000000 0.000000
vt 0.000000 0.000000
vt 0.000000 0.000000
vt 0.000000 0.000000
vt 0.000000 0.000000
vt 0.000000 0.000000
vt 0.000000 0.000000
vt 0.000000 0.000000
s 0
usemtl metal
f 7/7/1 6/6/1 14/14/1 15/15/1
f 5/5/2 4/4/2 12/12/2 13/13/2
f 3/3/3 2/2/3 10/10/3 11/11/3
f 8/8/4 7/7/4 15/15/4 16/16/4
f 6/6/5 5/5/5 13/13/5 14/14/5
f 4/4/6 3/3/6 11/11/6 12/12/6
f 2/2/7 1/1/7 9/9/7 10/10/7
f 1/1/8 8/8/8 16/16/8 9/9/8
f 98/98/9 32/32/9 48/48/9 100/100/9
f 21/21/10 22/22/10 38/38/10 37/37/10
f 20/20/11 21/21/11 37/37/11 36/36/11
f 23/23/12 24/24/12 40/40/12 39/39/12
f 22/22/13 23/23/13 39/39/13 38/38/13
f 25/25/14 26/26/14 42/42/14 41/41/14
f 24/24/15 25/25/15 41/41/15 40/40/15
f 27/27/16 28/28/16 44/44/16 43/43/16
f 26/26/17 27/27/17 43/43/17 42/42/17
f 29/29/18 30/30/18 46/46/18 45/45/18
f 28/28/19 29/29/19 45/45/19 44/44/19
f 31/31/20 32/32/20 48/48/20 47/47/20
f 126/126/21 33/33/21 103/103/21 127/127/21
f 30/30/22 31/31/22 47/47/22 46/46/22
f 97/97/23 19/19/23 35/35/23 99/99/23
f 19/19/24 20/20/24 36/36/24 35/35/24
f 99/99/25 125/125/25 100/100/25 66/66/25 65/65/25
f 24/24/26 23/23/26 55/55/26 56/56/26
f 23/23/26 22/22/26 54/54/26 55/55/26
f 26/26/26 25/25/26 57/57/26 58/58/26
f 25/25/26 24/24/26 56/56/26 57/57/26
f 28/28/26 27/27/26 59/59/26 60/60/26
f 27/27/26 26/26/26 58/58/26 59/59/26
f 30/30/26 29/29/26 61/61/26 62/62/26
f 29/29/26 28/28/26 60/60/26 61/61/26
f 32/32/26 31/31/26 63/63/26 64/64/26
f 119/119/26 97/97/26 49/49/26 120/120/26
f 31/31/26 30/30/26 62/62/26 63/63/26
f 19/19/26 97/97/26 49/49/26 51/51/26
f 20/20/26 19/19/26 51/51/26 52/52/26
f 32/32/26 98/98/26 50/50/26 64/64/26
f 22/22/26 21/21/26 53/53/26 54/54/26
f 21/21/26 20/20/26 52/52/26 53/53/26
f 66/66/27 80/80/27 79/79/27 78/78/27 77/77/27 76/76/27 75/75/27 74/74/27 73/73/27 72/72/27 71/71/27 70/70/27 69/69/27 68/68/27 67/67/27 65/65/27
f 45/45/28 44/44/28 76/76/28 77/77/28
f 64/64/29 50/50/29 82/82/29 96/96/29
f 36/36/30 35/35/30 67/67/30 68/68/30
f 47/47/31 46/46/31 78/78/31 79/79/31
f 53/53/32 52/52/32 84/84/32 85/85/32
f 38/38/33 37/37/33 69/69/33 70/70/33
f 55/55/34 54/54/34 86/86/34 87/87/34
f 40/40/35 39/39/35 71/71/35 72/72/35
f 57/57/36 56/56/36 88/88/36 89/89/36
f 42/42/37 41/41/37 73/73/37 74/74/37
f 59/59/38 58/58/38 90/90/38 91/91/38
f 44/44/39 43/43/39 75/75/39 76/76/39
f 120/120/40 49/49/40 81/81/40 121/121/40
f 61/61/41 60/60/41 92/92/41 93/93/41
f 46/46/42 45/45/42 77/77/42 78/78/42
f 52/52/43 51/51/43 83/83/43 84/84/43
f 63/63/44 62/62/44 94/94/44 95/95/44
f 48/48/45 47/47/45 79/79/45 80/80/45
f 54/54/46 53/53/46 85/85/46 86/86/46
f 35/35/47 99/99/47 65/65/47 67/67/47
f 56/56/48 55/55/48 87/87/48 88/88/48
f 100/100/49 48/48/49 80/80/49 66/66/49
f 58/58/50 57/57/50 89/89/50 90/90/50
f 37/37/51 36/36/51 68/68/51 69/69/51
f 60/60/52 59/59/52 91/91/52 92/92/52
f 39/39/53 38/38/53 70/70/53 71/71/53
f 62/62/54 61/61/54 93/93/54 94/94/54
f 41/41/55 40/40/55 72/72/55 73/73/55
f 64/64/56 63/63/56 95/95/56 96/96/56
f 43/43/57 42/42/57 74/74/57 75/75/57
f 51/51/58 49/49/58 81/81/58 83/83/58
f 96/96/59 82/82/59 66/66/59 80/80/59
f 81/81/60 65/65/60 66/66/60 82/82/60 121/121/60
f 65/65/23 81/81/23 83/83/23 67/67/23
f 67/67/24 83/83/24 84/84/24 68/68/24
f 68/68/11 84/84/11 85/85/11 69/69/11
f 69/69/10 85/85/10 86/86/10 70/70/10
f 70/70/13 86/86/13 87/87/13 71/71/13
f 71/71/12 87/87/12 88/88/12 72/72/12
f 72/72/15 88/88/15 89/89/15 73/73/15
f 73/73/14 89/89/14 90/90/14 74/74/14
f 74/74/17 90/90/17 91/91/17 75/75/17
f 75/75/16 91/91/16 92/92/16 76/76/16
f 76/76/19 92/92/19 93/93/19 77/77/19
f 77/77/18 93/93/18 94/94/18 78/78/18
f 78/78/22 94/94/22 95/95/22 79/79/22
f 79/79/20 95/95/20 96/96/20 80/80/20
f 122/122/61 17/17/61 97/97/61 119/119/61
f 126/126/61 34/34/61 100/100/61 125/125/61
f 34/34/61 18/18/61 98/98/61 100/100/61
f 17/17/61 33/33/61 99/99/61 97/97/61
f 114/114/62 113/113/62 105/105/62 107/107/62
f 18/18/63 34/34/63 104/104/63 102/102/63
f 122/122/64 18/18/64 102/102/64 123/123/64
f 33/33/65 17/17/65 101/101/65 103/103/65
f 117/117/66 106/106/66 108/108/66 118/118/66
f 116/116/67 115/115/67 108/108/67 106/106/67
f 123/123/68 102/102/68 112/112/68 124/124/68
f 102/102/69 104/104/69 111/111/69 112/112/69
f 127/127/70 103/103/70 110/110/70 128/128/70
f 103/103/71 101/101/71 109/109/71 110/110/71
f 110/110/72 109/109/72 113/113/72 114/114/72
f 112/112/73 111/111/73 115/115/73 116/116/73
f 106/106/74 8/8/74 7/7/74 116/116/74
f 105/105/75 117/117/75 118/118/75 107/107/75
f 101/101/76 123/123/76 124/124/76 109/109/76
f 17/17/64 122/122/64 123/123/64 101/101/64
f 18/18/61 122/122/61 119/119/61 98/98/61
f 50/50/40 120/120/40 121/121/40 82/82/40
f 98/98/26 119/119/26 120/120/26 50/50/26
f 117/117/77 1/1/77 8/8/77 106/106/77
f 105/105/78 2/2/78 1/1/78 117/117/78
f 113/113/79 3/3/79 2/2/79 105/105/79
f 109/109/80 4/4/80 3/3/80 113/113/80
f 124/124/81 5/5/81 4/4/81 109/109/81
f 112/112/82 6/6/82 5/5/82 124/124/82
f 116/116/83 7/7/83 6/6/83 112/112/83
f 108/108/84 15/15/84 16/16/84
f 108/108/85 115/115/85 15/15/85
f 111/111/86 15/15/86 115/115/86
f 15/15/87 111/111/87 14/14/87
f 104/104/88 127/127/88 128/128/88 111/111/88
f 33/33/61 126/126/61 125/125/61 99/99/61
f 34/34/21 126/126/21 127/127/21 104/104/21
f 14/14/89 111/111/89 128/128/89 13/13/89
f 9/9/90 118/118/90 108/108/90 16/16/90
f 10/10/91 107/107/91 118/118/91 9/9/91
f 11/11/92 114/114/92 107/107/92 10/10/92
f 12/12/93 110/110/93 114/114/93 11/11/93
f 13/13/94 128/128/94 110/110/94 12/12/94
