# This file uses centimeters as units for non-parametric coordinates.

mtllib Wall-window.mtl
g default
v -34.908714 -27.740056 31.794246
v -34.908714 -27.740056 34.557521
v -34.908714 27.740056 31.794246
v -34.908714 27.740056 34.557521
v 34.172993 27.740056 31.794246
v 34.172993 27.740056 34.557521
v 34.172993 -27.740056 31.794246
v 34.172993 -27.740056 34.557521
v 22.659377 27.740056 31.794246
v 22.659377 -27.740056 31.794246
v 22.659377 -27.740056 34.557521
v 22.659377 27.740056 34.557521
v 11.145763 27.740056 31.794246
v 11.145763 -27.740056 31.794246
v 11.145763 -27.740056 34.557521
v 11.145763 27.740056 34.557521
v 22.659377 0.000000 31.794246
v 11.145763 0.000000 31.794246
v -34.908714 0.000000 31.794246
v -34.908714 0.000000 34.557521
v 11.145763 0.000000 34.557521
v 22.659377 0.000000 34.557521
v 34.172993 0.000000 34.557521
v 34.172993 0.000000 31.794246
v 22.659377 18.493371 31.794246
v 11.145763 18.493371 31.794246
v -34.908714 18.493371 31.794246
v -34.908714 18.493371 34.557521
v 11.145763 18.493371 34.557521
v 22.659377 18.493371 34.557521
v 34.172993 18.493371 34.557521
v 34.172993 18.493371 31.794246
v 21.637809 1.640861 32.039423
v 12.167331 1.640861 32.039423
v 12.167331 1.640861 34.312344
v 21.637809 1.640861 34.312344
v 21.637809 16.852511 32.039423
v 12.167331 16.852511 32.039423
v 21.637809 16.852511 34.312344
v 12.167331 16.852511 34.312344
vt 0.375000 0.000000
vt 0.625000 0.000000
vt 0.375000 0.250000
vt 0.625000 0.250000
vt 0.375000 0.500000
vt 0.625000 0.500000
vt 0.375000 0.750000
vt 0.625000 0.750000
vt 0.375000 1.000000
vt 0.625000 1.000000
vt 0.875000 0.000000
vt 0.875000 0.250000
vt 0.125000 0.000000
vt 0.125000 0.250000
vt 0.166667 0.250000
vt 0.375000 0.458333
vt 0.166667 0.000000
vt 0.375000 0.791667
vt 0.625000 0.791667
vt 0.833333 0.000000
vt 0.625000 0.458333
vt 0.833333 0.250000
vt 0.208333 0.250000
vt 0.375000 0.416667
vt 0.208333 0.000000
vt 0.375000 0.833333
vt 0.625000 0.833333
vt 0.791667 0.000000
vt 0.625000 0.416667
vt 0.791667 0.250000
vt 0.166667 0.125000
vt 0.208333 0.125000
vt 0.375000 0.125000
vt 0.625000 0.125000
vt 0.791667 0.125000
vt 0.833333 0.125000
vt 0.625000 0.625000
vt 0.875000 0.125000
vt 0.125000 0.125000
vt 0.375000 0.625000
vt 0.166667 0.208333
vt 0.208333 0.208333
vt 0.375000 0.208333
vt 0.625000 0.208333
vt 0.791667 0.208333
vt 0.833333 0.208333
vt 0.625000 0.541667
vt 0.875000 0.208333
vt 0.125000 0.208333
vt 0.375000 0.541667
vt 0.166667 0.125000
vt 0.208333 0.125000
vt 0.791667 0.125000
vt 0.833333 0.125000
vt 0.208333 0.208333
vt 0.166667 0.208333
vt 0.833333 0.208333
vt 0.791667 0.208333
vn -1.000000 0.000000 0.000000
vn -1.000000 0.000000 0.000000
vn -1.000000 0.000000 0.000000
vn -1.000000 0.000000 0.000000
vn 0.000000 1.000000 0.000000
vn 0.000000 1.000000 0.000000
vn 0.000000 1.000000 0.000000
vn 0.000000 1.000000 0.000000
vn 1.000000 0.000000 0.000000
vn 1.000000 0.000000 0.000000
vn 1.000000 0.000000 0.000000
vn 1.000000 0.000000 0.000000
vn 0.000000 -1.000000 0.000000
vn 0.000000 -1.000000 0.000000
vn 0.000000 -1.000000 0.000000
vn 0.000000 -1.000000 0.000000
vn 0.000000 0.000000 1.000000
vn 0.000000 0.000000 1.000000
vn 0.000000 0.000000 1.000000
vn 0.000000 0.000000 1.000000
vn -0.000000 0.000000 -1.000000
vn -0.000000 0.000000 -1.000000
vn -0.000000 0.000000 -1.000000
vn -0.000000 0.000000 -1.000000
vn -0.000000 0.000000 -1.000000
vn -0.000000 0.000000 -1.000000
vn -0.000000 0.000000 -1.000000
vn -0.000000 0.000000 -1.000000
vn 0.000000 -1.000000 0.000000
vn 0.000000 -1.000000 0.000000
vn 0.000000 -1.000000 0.000000
vn 0.000000 -1.000000 0.000000
vn 0.000000 0.000000 1.000000
vn 0.000000 0.000000 1.000000
vn 0.000000 0.000000 1.000000
vn 0.000000 0.000000 1.000000
vn 0.000000 1.000000 0.000000
vn 0.000000 1.000000 0.000000
vn 0.000000 1.000000 0.000000
vn 0.000000 1.000000 0.000000
vn -0.000000 0.000000 -1.000000
vn -0.000000 0.000000 -1.000000
vn -0.000000 0.000000 -1.000000
vn -0.000000 0.000000 -1.000000
vn -0.000000 0.000000 -1.000000
vn -0.000000 0.000000 -1.000000
vn -1.000000 0.000000 0.000000
vn -1.000000 0.000000 0.000000
vn -1.000000 0.000000 0.000000
vn -1.000000 0.000000 0.000000
vn 0.000000 0.000000 1.000000
vn 0.000000 0.000000 1.000000
vn 0.000000 0.000000 1.000000
vn 0.000000 0.000000 1.000000
vn 0.000000 0.000000 1.000000
vn 0.000000 0.000000 1.000000
vn 0.000000 0.000000 1.000000
vn 0.000000 0.000000 1.000000
vn 1.000000 0.000000 0.000000
vn 1.000000 0.000000 0.000000
vn 1.000000 0.000000 0.000000
vn 1.000000 0.000000 0.000000
vn -0.000000 0.000000 -1.000000
vn -0.000000 0.000000 -1.000000
vn 0.000000 1.000000 0.000000
vn 0.000000 1.000000 0.000000
vn 0.000000 1.000000 0.000000
vn 0.000000 1.000000 0.000000
vn 0.000000 -1.000000 0.000000
vn 0.000000 -1.000000 0.000000
vn 0.000000 -1.000000 0.000000
vn 0.000000 -1.000000 0.000000
vn 1.000000 0.000000 0.000000
vn 1.000000 0.000000 0.000000
vn 1.000000 0.000000 0.000000
vn 1.000000 0.000000 0.000000
vn -1.000000 0.000000 0.000000
vn -1.000000 0.000000 0.000000
vn -1.000000 0.000000 0.000000
vn -1.000000 0.000000 0.000000
vn -0.000000 0.147779 -0.989020
vn -0.000000 0.147779 -0.989020
vn -0.000000 0.147779 -0.989020
vn -0.000000 0.147779 -0.989020
vn 0.000000 0.147779 0.989020
vn 0.000000 0.147779 0.989020
vn 0.000000 0.147779 0.989020
vn 0.000000 0.147779 0.989020
vn 0.000000 -0.147779 -0.989020
vn 0.000000 -0.147779 -0.989020
vn 0.000000 -0.147779 -0.989020
vn 0.000000 -0.147779 -0.989020
vn 0.000000 -0.147779 0.989020
vn 0.000000 -0.147779 0.989020
vn 0.000000 -0.147779 0.989020
vn 0.000000 -0.147779 0.989020
vn 0.233374 0.000000 0.972387
vn 0.233374 0.000000 0.972387
vn 0.233374 0.000000 0.972387
vn 0.233374 0.000000 0.972387
vn 0.233374 0.000000 -0.972387
vn 0.233374 0.000000 -0.972387
vn 0.233374 0.000000 -0.972387
vn 0.233374 0.000000 -0.972387
vn -0.233374 0.000000 0.972387
vn -0.233374 0.000000 0.972387
vn -0.233374 0.000000 0.972387
vn -0.233374 0.000000 0.972387
vn -0.233374 0.000000 -0.972387
vn -0.233374 0.000000 -0.972387
vn -0.233374 0.000000 -0.972387
vn -0.233374 0.000000 -0.972387
s 1
g pasted__pCube1 group1
usemtl initialShadingGroup
f 27/43/1 28/44/2 4/4/3 3/3/4
s 2
f 13/24/5 3/3/6 4/4/7 16/29/8
s 3
f 5/5/9 6/6/10 31/47/11 32/50/12
s 4
f 2/10/13 1/9/14 14/26/15 15/27/16
s 5
f 16/30/17 4/4/18 28/44/19 29/45/20
s 6
f 26/42/21 27/43/22 3/3/23 13/23/24
f 32/49/25 25/41/26 9/15/27 5/14/28
s 4
f 7/7/29 8/8/30 11/19/31 10/18/32
s 5
f 12/22/33 30/46/34 31/48/35 6/12/36
s 2
f 9/16/37 12/21/38 6/6/39 5/5/40
s 6
f 25/41/26 26/42/21 13/23/24 9/15/27
s 4
f 10/18/32 11/19/31 15/27/16 14/26/15
s 5
f 16/30/17 29/45/20 30/46/34 12/22/33
s 2
f 13/24/5 16/29/8 12/21/38 9/16/37
s 6
f 14/25/41 18/32/42 17/31/43 10/17/44
f 19/33/45 18/32/42 14/25/41 1/1/46
s 1
f 20/34/47 19/33/48 1/1/49 2/2/50
s 5
f 21/35/51 20/34/52 2/2/53 15/28/54
f 22/36/55 21/35/51 15/28/54 11/20/56
f 8/11/57 23/38/58 22/36/55 11/20/56
s 3
f 7/7/59 24/40/60 23/37/61 8/8/62
s 6
f 10/17/44 17/31/43 24/39/63 7/13/64
f 27/43/22 26/42/21 18/32/42 19/33/45
s 1
f 28/44/2 27/43/1 19/33/48 20/34/47
s 5
f 29/45/20 28/44/19 20/34/52 21/35/51
f 23/38/58 31/48/35 30/46/34 22/36/55
s 3
f 24/40/60 32/50/12 31/47/11 23/37/61
s 6
f 17/31/43 25/41/26 32/49/25 24/39/63
s off
f 33/51/65 34/52/66 35/53/67 36/54/68
f 38/55/69 37/56/70 39/57/71 40/58/72
f 40/58/73 35/53/74 34/52/75 38/55/76
f 36/54/77 39/57/78 37/56/79 33/51/80
f 17/31/81 18/32/82 34/52/83 33/51/84
f 21/35/85 22/36/86 36/54/87 35/53/88
f 26/42/89 25/41/90 37/56/91 38/55/92
f 30/46/93 29/45/94 40/58/95 39/57/96
f 29/45/97 21/35/98 35/53/99 40/58/100
f 18/32/101 26/42/102 38/55/103 34/52/104
f 22/36/105 30/46/106 39/57/107 36/54/108
f 25/41/109 17/31/110 33/51/111 37/56/112
