# This file uses centimeters as units for non-parametric coordinates.

mtllib window-shutters.mtl
g default
v 12.681260 14.854590 31.059385
v 21.534081 14.854590 31.059385
v 12.681260 17.353344 32.564041
v 21.534081 17.353344 32.564041
v 12.681260 17.496517 32.326279
v 21.534081 17.496517 32.326279
v 12.681260 14.997763 30.821623
v 21.534081 14.997763 30.821623
v 21.534081 14.530416 30.864180
v 12.681260 14.530416 30.864180
v 12.681260 14.627295 30.807232
v 12.681260 14.858971 30.785440
v 21.534081 14.627295 30.807232
v 21.534081 14.858971 30.785440
v 12.681260 12.501768 31.059385
v 21.534081 12.501768 31.059385
v 12.681260 15.000523 32.564041
v 21.534081 15.000523 32.564041
v 12.681260 15.143694 32.326279
v 21.534081 15.143694 32.326279
v 12.681260 12.644940 30.821623
v 21.534081 12.644940 30.821623
v 21.534081 12.177594 30.864180
v 12.681260 12.177594 30.864180
v 12.681260 12.274473 30.807232
v 12.681260 12.506148 30.785440
v 21.534081 12.274473 30.807232
v 21.534081 12.506148 30.785440
v 12.681260 10.357723 31.059385
v 21.534081 10.357723 31.059385
v 12.681260 12.856478 32.564041
v 21.534081 12.856478 32.564041
v 12.681260 12.999649 32.326279
v 21.534081 12.999649 32.326279
v 12.681260 10.500896 30.821623
v 21.534081 10.500896 30.821623
v 21.534081 10.033549 30.864180
v 12.681260 10.033549 30.864180
v 12.681260 10.130428 30.807232
v 12.681260 10.362103 30.785440
v 21.534081 10.130428 30.807232
v 21.534081 10.362103 30.785440
v 12.681260 8.290369 31.059385
v 21.534081 8.290369 31.059385
v 12.681260 10.789124 32.564041
v 21.534081 10.789124 32.564041
v 12.681260 10.932295 32.326279
v 21.534081 10.932295 32.326279
v 12.681260 8.433541 30.821623
v 21.534081 8.433541 30.821623
v 21.534081 7.966195 30.864180
v 12.681260 7.966195 30.864180
v 12.681260 8.063074 30.807232
v 12.681260 8.294749 30.785440
v 21.534081 8.063074 30.807232
v 21.534081 8.294749 30.785440
v 12.681260 6.371560 31.059385
v 21.534081 6.371560 31.059385
v 12.681260 8.870314 32.564041
v 21.534081 8.870314 32.564041
v 12.681260 9.013485 32.326279
v 21.534081 9.013485 32.326279
v 12.681260 6.514731 30.821623
v 21.534081 6.514731 30.821623
v 21.534081 6.047385 30.864180
v 12.681260 6.047385 30.864180
v 12.681260 6.144264 30.807232
v 12.681260 6.375939 30.785440
v 21.534081 6.144264 30.807232
v 21.534081 6.375939 30.785440
v 12.681260 4.179782 31.059385
v 21.534081 4.179782 31.059385
v 12.681260 6.678535 32.564041
v 21.534081 6.678535 32.564041
v 12.681260 6.821707 32.326279
v 21.534081 6.821707 32.326279
v 12.681260 4.322954 30.821623
v 21.534081 4.322954 30.821623
v 21.534081 3.855608 30.864180
v 12.681260 3.855608 30.864180
v 12.681260 3.952486 30.807232
v 12.681260 4.184162 30.785440
v 21.534081 3.952486 30.807232
v 21.534081 4.184162 30.785440
v 12.681260 1.965796 31.059385
v 21.534081 1.965796 31.059385
v 12.681260 4.464550 32.564041
v 21.534081 4.464550 32.564041
v 12.681260 4.607722 32.326279
v 21.534081 4.607722 32.326279
v 12.681260 2.108968 30.821623
v 21.534081 2.108968 30.821623
v 21.534081 1.641622 30.864180
v 12.681260 1.641622 30.864180
v 12.681260 1.738501 30.807232
v 12.681260 1.970176 30.785440
v 21.534081 1.738501 30.807232
v 21.534081 1.970176 30.785440
vt 0.375000 0.000000
vt 0.625000 0.000000
vt 0.375000 0.250000
vt 0.625000 0.250000
vt 0.375000 0.500000
vt 0.625000 0.500000
vt 0.375000 1.000000
vt 0.875000 0.000000
vt 0.875000 0.250000
vt 0.125000 0.000000
vt 0.125000 0.250000
vt 0.375000 0.750000
vt 0.625000 1.000000
vt 0.625000 1.000000
vt 0.375000 0.874985
vt 0.375000 1.000000
vt 0.625000 0.750000
vt 0.625000 0.750000
vt 0.375000 0.750000
vt 0.625000 0.874985
vt 0.375000 0.000000
vt 0.625000 0.000000
vt 0.625000 0.250000
vt 0.375000 0.250000
vt 0.625000 0.500000
vt 0.375000 0.500000
vt 0.625000 0.750000
vt 0.375000 0.750000
vt 0.375000 0.874985
vt 0.625000 0.874985
vt 0.625000 1.000000
vt 0.375000 1.000000
vt 0.875000 0.000000
vt 0.875000 0.250000
vt 0.125000 0.000000
vt 0.125000 0.250000
vt 0.625000 0.750000
vt 0.375000 0.750000
vt 0.625000 1.000000
vt 0.375000 1.000000
vt 0.375000 0.000000
vt 0.625000 0.000000
vt 0.625000 0.250000
vt 0.375000 0.250000
vt 0.625000 0.500000
vt 0.375000 0.500000
vt 0.625000 0.750000
vt 0.375000 0.750000
vt 0.375000 0.874985
vt 0.625000 0.874985
vt 0.625000 1.000000
vt 0.375000 1.000000
vt 0.875000 0.000000
vt 0.875000 0.250000
vt 0.125000 0.000000
vt 0.125000 0.250000
vt 0.625000 0.750000
vt 0.375000 0.750000
vt 0.625000 1.000000
vt 0.375000 1.000000
vt 0.375000 0.000000
vt 0.625000 0.000000
vt 0.625000 0.250000
vt 0.375000 0.250000
vt 0.625000 0.500000
vt 0.375000 0.500000
vt 0.625000 0.750000
vt 0.375000 0.750000
vt 0.375000 0.874985
vt 0.625000 0.874985
vt 0.625000 1.000000
vt 0.375000 1.000000
vt 0.875000 0.000000
vt 0.875000 0.250000
vt 0.125000 0.000000
vt 0.125000 0.250000
vt 0.625000 0.750000
vt 0.375000 0.750000
vt 0.625000 1.000000
vt 0.375000 1.000000
vt 0.375000 0.000000
vt 0.625000 0.000000
vt 0.625000 0.250000
vt 0.375000 0.250000
vt 0.625000 0.500000
vt 0.375000 0.500000
vt 0.625000 0.750000
vt 0.375000 0.750000
vt 0.375000 0.874985
vt 0.625000 0.874985
vt 0.625000 1.000000
vt 0.375000 1.000000
vt 0.875000 0.000000
vt 0.875000 0.250000
vt 0.125000 0.000000
vt 0.125000 0.250000
vt 0.625000 0.750000
vt 0.375000 0.750000
vt 0.625000 1.000000
vt 0.375000 1.000000
vt 0.375000 0.000000
vt 0.625000 0.000000
vt 0.625000 0.250000
vt 0.375000 0.250000
vt 0.625000 0.500000
vt 0.375000 0.500000
vt 0.625000 0.750000
vt 0.375000 0.750000
vt 0.375000 0.874985
vt 0.625000 0.874985
vt 0.625000 1.000000
vt 0.375000 1.000000
vt 0.875000 0.000000
vt 0.875000 0.250000
vt 0.125000 0.000000
vt 0.125000 0.250000
vt 0.625000 0.750000
vt 0.375000 0.750000
vt 0.625000 1.000000
vt 0.375000 1.000000
vt 0.375000 0.000000
vt 0.625000 0.000000
vt 0.625000 0.250000
vt 0.375000 0.250000
vt 0.625000 0.500000
vt 0.375000 0.500000
vt 0.625000 0.750000
vt 0.375000 0.750000
vt 0.375000 0.874985
vt 0.625000 0.874985
vt 0.625000 1.000000
vt 0.375000 1.000000
vt 0.875000 0.000000
vt 0.875000 0.250000
vt 0.125000 0.000000
vt 0.125000 0.250000
vt 0.625000 0.750000
vt 0.375000 0.750000
vt 0.625000 1.000000
vt 0.375000 1.000000
vn 0.000000 -0.515857 0.856675
vn 0.000000 -0.515857 0.856675
vn 0.000000 -0.515857 0.856675
vn 0.000000 -0.515857 0.856675
vn 0.000000 0.856672 0.515861
vn 0.000000 0.856672 0.515861
vn 0.000000 0.856672 0.515861
vn 0.000000 0.856672 0.515861
vn 0.000000 0.515857 -0.856675
vn 0.000000 0.515857 -0.856675
vn 0.000000 0.504425 -0.863455
vn 0.000000 0.504425 -0.863455
vn 0.000000 -0.233054 -0.972464
vn 0.000000 -0.233054 -0.972464
vn 0.000000 -0.506757 -0.862089
vn 0.000000 -0.506757 -0.862089
vn 1.000000 0.000000 0.000000
vn 1.000000 0.000000 0.000000
vn 1.000000 0.000000 0.000000
vn 1.000000 0.000000 0.000000
vn -1.000000 0.000000 0.000000
vn -1.000000 0.000000 0.000000
vn -1.000000 0.000000 0.000000
vn -1.000000 0.000000 0.000000
vn 0.000000 0.038816 -0.999246
vn 0.000000 0.038816 -0.999246
vn 1.000000 0.000005 0.000000
vn 1.000000 0.000005 0.000000
vn 1.000000 0.000005 0.000000
vn 0.000000 -0.515857 0.856674
vn 0.000000 -0.515857 0.856674
vn -1.000000 0.000000 0.000000
vn -1.000000 0.000000 0.000000
vn -1.000000 0.000000 0.000000
vn 0.000000 -0.515857 0.856675
vn 0.000000 -0.515857 0.856675
vn 0.000000 -0.515857 0.856675
vn 0.000000 -0.515857 0.856675
vn 0.000000 0.856675 0.515857
vn 0.000000 0.856675 0.515857
vn 0.000000 0.856675 0.515857
vn 0.000000 0.856675 0.515857
vn 0.000000 0.515857 -0.856675
vn 0.000000 0.515857 -0.856675
vn 0.000000 0.504425 -0.863455
vn 0.000000 0.504425 -0.863455
vn 0.000000 -0.233054 -0.972464
vn 0.000000 -0.233054 -0.972464
vn 0.000000 -0.506757 -0.862089
vn 0.000000 -0.506757 -0.862089
vn 1.000000 0.000000 0.000000
vn 1.000000 0.000000 0.000000
vn 1.000000 0.000000 0.000000
vn 1.000000 0.000000 0.000000
vn -1.000000 0.000000 0.000000
vn -1.000000 0.000000 0.000000
vn -1.000000 0.000000 0.000000
vn -1.000000 0.000000 0.000000
vn 0.000000 0.038816 -0.999246
vn 0.000000 0.038816 -0.999246
vn 1.000000 0.000005 0.000000
vn 1.000000 0.000005 0.000000
vn 1.000000 0.000005 0.000000
vn 0.000000 -0.515857 0.856674
vn 0.000000 -0.515857 0.856674
vn -1.000000 0.000000 0.000000
vn -1.000000 0.000000 0.000000
vn -1.000000 0.000000 0.000000
vn 0.000000 -0.515857 0.856675
vn 0.000000 -0.515857 0.856675
vn 0.000000 -0.515857 0.856675
vn 0.000000 -0.515857 0.856675
vn 0.000000 0.856675 0.515857
vn 0.000000 0.856675 0.515857
vn 0.000000 0.856675 0.515857
vn 0.000000 0.856675 0.515857
vn 0.000000 0.515857 -0.856675
vn 0.000000 0.515857 -0.856675
vn 0.000000 0.504425 -0.863455
vn 0.000000 0.504425 -0.863455
vn 0.000000 -0.233054 -0.972464
vn 0.000000 -0.233054 -0.972464
vn 0.000000 -0.506757 -0.862089
vn 0.000000 -0.506757 -0.862089
vn 1.000000 0.000000 0.000000
vn 1.000000 0.000000 0.000000
vn 1.000000 0.000000 0.000000
vn 1.000000 0.000000 0.000000
vn -1.000000 0.000000 0.000000
vn -1.000000 0.000000 0.000000
vn -1.000000 0.000000 0.000000
vn -1.000000 0.000000 0.000000
vn 0.000000 0.038816 -0.999246
vn 0.000000 0.038816 -0.999246
vn 1.000000 0.000005 0.000000
vn 1.000000 0.000005 0.000000
vn 1.000000 0.000005 0.000000
vn 0.000000 -0.515858 0.856674
vn 0.000000 -0.515858 0.856674
vn -1.000000 0.000000 0.000000
vn -1.000000 0.000000 0.000000
vn -1.000000 0.000000 0.000000
vn 0.000000 -0.515857 0.856675
vn 0.000000 -0.515857 0.856675
vn 0.000000 -0.515857 0.856675
vn 0.000000 -0.515857 0.856675
vn 0.000000 0.856676 0.515855
vn 0.000000 0.856676 0.515855
vn 0.000000 0.856676 0.515855
vn 0.000000 0.856676 0.515855
vn 0.000000 0.515857 -0.856674
vn 0.000000 0.515857 -0.856674
vn 0.000000 0.504425 -0.863455
vn 0.000000 0.504425 -0.863455
vn 0.000000 -0.233054 -0.972464
vn 0.000000 -0.233054 -0.972464
vn 0.000000 -0.506757 -0.862089
vn 0.000000 -0.506757 -0.862089
vn 1.000000 0.000000 0.000000
vn 1.000000 0.000000 0.000000
vn 1.000000 0.000000 0.000000
vn 1.000000 0.000000 0.000000
vn -1.000000 0.000000 0.000000
vn -1.000000 0.000000 0.000000
vn -1.000000 0.000000 0.000000
vn -1.000000 0.000000 0.000000
vn 0.000000 0.038816 -0.999246
vn 0.000000 0.038816 -0.999246
vn 1.000000 0.000005 0.000000
vn 1.000000 0.000005 0.000000
vn 1.000000 0.000005 0.000000
vn 0.000000 -0.515857 0.856674
vn 0.000000 -0.515857 0.856674
vn -1.000000 0.000000 0.000000
vn -1.000000 0.000000 0.000000
vn -1.000000 0.000000 0.000000
vn 0.000000 -0.515857 0.856675
vn 0.000000 -0.515857 0.856675
vn 0.000000 -0.515857 0.856675
vn 0.000000 -0.515857 0.856675
vn 0.000000 0.856675 0.515857
vn 0.000000 0.856675 0.515857
vn 0.000000 0.856675 0.515857
vn 0.000000 0.856675 0.515857
vn 0.000000 0.515857 -0.856675
vn 0.000000 0.515857 -0.856675
vn 0.000000 0.504425 -0.863455
vn 0.000000 0.504425 -0.863455
vn 0.000000 -0.233054 -0.972464
vn 0.000000 -0.233054 -0.972464
vn 0.000000 -0.506758 -0.862088
vn 0.000000 -0.506758 -0.862088
vn 1.000000 0.000000 0.000000
vn 1.000000 0.000000 0.000000
vn 1.000000 0.000000 0.000000
vn 1.000000 0.000000 0.000000
vn -1.000000 0.000000 0.000000
vn -1.000000 0.000000 0.000000
vn -1.000000 0.000000 0.000000
vn -1.000000 0.000000 0.000000
vn 0.000000 0.038816 -0.999246
vn 0.000000 0.038816 -0.999246
vn 1.000000 0.000005 0.000000
vn 1.000000 0.000005 0.000000
vn 1.000000 0.000005 0.000000
vn 0.000000 -0.515857 0.856674
vn 0.000000 -0.515857 0.856674
vn -1.000000 0.000000 0.000000
vn -1.000000 0.000000 0.000000
vn -1.000000 0.000000 0.000000
vn 0.000000 -0.515857 0.856675
vn 0.000000 -0.515857 0.856675
vn 0.000000 -0.515857 0.856675
vn 0.000000 -0.515857 0.856675
vn 0.000000 0.856674 0.515858
vn 0.000000 0.856674 0.515858
vn 0.000000 0.856674 0.515858
vn 0.000000 0.856674 0.515858
vn 0.000000 0.515857 -0.856675
vn 0.000000 0.515857 -0.856675
vn 0.000000 0.504425 -0.863455
vn 0.000000 0.504425 -0.863455
vn 0.000000 -0.233054 -0.972464
vn 0.000000 -0.233054 -0.972464
vn 0.000000 -0.506757 -0.862089
vn 0.000000 -0.506757 -0.862089
vn 1.000000 0.000000 0.000000
vn 1.000000 0.000000 0.000000
vn 1.000000 0.000000 0.000000
vn 1.000000 0.000000 0.000000
vn -1.000000 0.000000 0.000000
vn -1.000000 0.000000 0.000000
vn -1.000000 0.000000 0.000000
vn -1.000000 0.000000 0.000000
vn 0.000000 0.038816 -0.999246
vn 0.000000 0.038816 -0.999246
vn 1.000000 0.000005 0.000000
vn 1.000000 0.000005 0.000000
vn 1.000000 0.000005 0.000000
vn 0.000000 -0.515857 0.856674
vn 0.000000 -0.515857 0.856674
vn -1.000000 0.000000 0.000000
vn -1.000000 0.000000 0.000000
vn -1.000000 0.000000 0.000000
vn 0.000000 -0.515857 0.856675
vn 0.000000 -0.515857 0.856675
vn 0.000000 -0.515857 0.856675
vn 0.000000 -0.515857 0.856675
vn 0.000000 0.856675 0.515857
vn 0.000000 0.856675 0.515857
vn 0.000000 0.856675 0.515857
vn 0.000000 0.856675 0.515857
vn 0.000000 0.515857 -0.856675
vn 0.000000 0.515857 -0.856675
vn 0.000000 0.504425 -0.863455
vn 0.000000 0.504425 -0.863455
vn 0.000000 -0.233054 -0.972464
vn 0.000000 -0.233054 -0.972464
vn 0.000000 -0.506758 -0.862089
vn 0.000000 -0.506758 -0.862089
vn 1.000000 0.000000 0.000000
vn 1.000000 0.000000 0.000000
vn 1.000000 0.000000 0.000000
vn 1.000000 0.000000 0.000000
vn -1.000000 0.000000 0.000000
vn -1.000000 0.000000 0.000000
vn -1.000000 0.000000 0.000000
vn -1.000000 0.000000 0.000000
vn 0.000000 0.038816 -0.999246
vn 0.000000 0.038816 -0.999246
vn 1.000000 0.000005 0.000000
vn 1.000000 0.000005 0.000000
vn 1.000000 0.000005 0.000000
vn 0.000000 -0.515858 0.856674
vn 0.000000 -0.515858 0.856674
vn -1.000000 0.000000 0.000000
vn -1.000000 0.000000 0.000000
vn -1.000000 0.000000 0.000000
s 1
g pasted__pasted__pasted__pasted__pasted__pasted__pCube2
usemtl initialShadingGroup
f 1/1/1 2/2/2 4/4/3 3/3/4
s off
f 3/3/5 4/4/6 6/6/7 5/5/8
s 2
f 5/5/9 6/6/10 8/17/11 7/12/12
f 11/15/13 13/20/14 9/14/15 10/16/16
s 4
f 2/2/17 8/8/18 6/9/19 4/4/20
s 5
f 7/10/21 1/1/22 3/3/23 5/11/24
s 2
f 7/12/12 8/17/11 14/18/25 12/19/26
s 4
f 8/17/18 2/13/17 9/14/27 13/20/28 14/18/29
s 1
f 2/13/2 1/7/1 10/16/30 9/14/31
s 5
f 1/7/22 7/12/21 12/19/32 11/15/33 10/16/34
s 2
f 11/15/13 12/19/26 14/18/25 13/20/14
s 6
f 15/21/35 16/22/36 18/23/37 17/24/38
s off
f 17/24/39 18/23/40 20/25/41 19/26/42
s 7
f 19/26/43 20/25/44 22/27/45 21/28/46
f 25/29/47 27/30/48 23/31/49 24/32/50
s 9
f 16/22/51 22/33/52 20/34/53 18/23/54
s 10
f 21/35/55 15/21/56 17/24/57 19/36/58
s 7
f 21/28/46 22/27/45 28/37/59 26/38/60
s 9
f 22/27/52 16/39/51 23/31/61 27/30/62 28/37/63
s 6
f 16/39/36 15/40/35 24/32/64 23/31/65
s 10
f 15/40/56 21/28/55 26/38/66 25/29/67 24/32/68
s 7
f 25/29/47 26/38/60 28/37/59 27/30/48
s 11
f 29/41/69 30/42/70 32/43/71 31/44/72
s off
f 31/44/73 32/43/74 34/45/75 33/46/76
s 12
f 33/46/77 34/45/78 36/47/79 35/48/80
f 39/49/81 41/50/82 37/51/83 38/52/84
s 14
f 30/42/85 36/53/86 34/54/87 32/43/88
s 15
f 35/55/89 29/41/90 31/44/91 33/56/92
s 12
f 35/48/80 36/47/79 42/57/93 40/58/94
s 14
f 36/47/86 30/59/85 37/51/95 41/50/96 42/57/97
s 11
f 30/59/70 29/60/69 38/52/98 37/51/99
s 15
f 29/60/90 35/48/89 40/58/100 39/49/101 38/52/102
s 12
f 39/49/81 40/58/94 42/57/93 41/50/82
s 16
f 43/61/103 44/62/104 46/63/105 45/64/106
s off
f 45/64/107 46/63/108 48/65/109 47/66/110
s 17
f 47/66/111 48/65/112 50/67/113 49/68/114
f 53/69/115 55/70/116 51/71/117 52/72/118
s 19
f 44/62/119 50/73/120 48/74/121 46/63/122
s 20
f 49/75/123 43/61/124 45/64/125 47/76/126
s 17
f 49/68/114 50/67/113 56/77/127 54/78/128
s 19
f 50/67/120 44/79/119 51/71/129 55/70/130 56/77/131
s 16
f 44/79/104 43/80/103 52/72/132 51/71/133
s 20
f 43/80/124 49/68/123 54/78/134 53/69/135 52/72/136
s 17
f 53/69/115 54/78/128 56/77/127 55/70/116
s 21
f 57/81/137 58/82/138 60/83/139 59/84/140
s off
f 59/84/141 60/83/142 62/85/143 61/86/144
s 22
f 61/86/145 62/85/146 64/87/147 63/88/148
f 67/89/149 69/90/150 65/91/151 66/92/152
s 24
f 58/82/153 64/93/154 62/94/155 60/83/156
s 25
f 63/95/157 57/81/158 59/84/159 61/96/160
s 22
f 63/88/148 64/87/147 70/97/161 68/98/162
s 24
f 64/87/154 58/99/153 65/91/163 69/90/164 70/97/165
s 21
f 58/99/138 57/100/137 66/92/166 65/91/167
s 25
f 57/100/158 63/88/157 68/98/168 67/89/169 66/92/170
s 22
f 67/89/149 68/98/162 70/97/161 69/90/150
s 26
f 71/101/171 72/102/172 74/103/173 73/104/174
s off
f 73/104/175 74/103/176 76/105/177 75/106/178
s 27
f 75/106/179 76/105/180 78/107/181 77/108/182
f 81/109/183 83/110/184 79/111/185 80/112/186
s 29
f 72/102/187 78/113/188 76/114/189 74/103/190
s 30
f 77/115/191 71/101/192 73/104/193 75/116/194
s 27
f 77/108/182 78/107/181 84/117/195 82/118/196
s 29
f 78/107/188 72/119/187 79/111/197 83/110/198 84/117/199
s 26
f 72/119/172 71/120/171 80/112/200 79/111/201
s 30
f 71/120/192 77/108/191 82/118/202 81/109/203 80/112/204
s 27
f 81/109/183 82/118/196 84/117/195 83/110/184
s 31
f 85/121/205 86/122/206 88/123/207 87/124/208
s off
f 87/124/209 88/123/210 90/125/211 89/126/212
s 32
f 89/126/213 90/125/214 92/127/215 91/128/216
f 95/129/217 97/130/218 93/131/219 94/132/220
s 34
f 86/122/221 92/133/222 90/134/223 88/123/224
s 35
f 91/135/225 85/121/226 87/124/227 89/136/228
s 32
f 91/128/216 92/127/215 98/137/229 96/138/230
s 34
f 92/127/222 86/139/221 93/131/231 97/130/232 98/137/233
s 31
f 86/139/206 85/140/205 94/132/234 93/131/235
s 35
f 85/140/226 91/128/225 96/138/236 95/129/237 94/132/238
s 32
f 95/129/217 96/138/230 98/137/229 97/130/218
